<svg xmlns="http://www.w3.org/2000/svg" fill="none" viewBox="0 0 38 38">
  <path fill-rule="evenodd" clip-rule="evenodd" d="M19 3.455c-8.585 0-15.545 6.96-15.545 15.545S10.415 34.545 19 34.545 34.545 27.585 34.545 19 27.585 3.455 19 3.455zM0 19C0 8.507 8.507 0 19 0s19 8.507 19 19-8.507 19-19 19S0 29.493 0 19z" fill="#000"/>
  <path fill-rule="evenodd" clip-rule="evenodd" d="M19 3.455c-8.585 0-15.545 6.96-15.545 15.545S10.415 34.545 19 34.545 34.545 27.585 34.545 19 27.585 3.455 19 3.455zM0 19C0 8.507 8.507 0 19 0s19 8.507 19 19-8.507 19-19 19S0 29.493 0 19z" fill="url(#0k0AuamWPa)"/>
  <path fill-rule="evenodd" clip-rule="evenodd" d="M17.273 10.364c0-.954.773-1.728 1.727-1.728h.017a1.727 1.727 0 010 3.455H19a1.727 1.727 0 01-1.727-1.727z" fill="#000"/>
  <path fill-rule="evenodd" clip-rule="evenodd" d="M17.273 10.364c0-.954.773-1.728 1.727-1.728h.017a1.727 1.727 0 010 3.455H19a1.727 1.727 0 01-1.727-1.727z" fill="url(#0k0AuamWPb)"/>
  <path fill-rule="evenodd" clip-rule="evenodd" d="M13.818 17.273c0-.954.774-1.727 1.728-1.727H19c.954 0 1.727.773 1.727 1.727v6.909h1.727a1.727 1.727 0 110 3.454h-6.909a1.727 1.727 0 010-3.454h1.728V19h-1.727a1.727 1.727 0 01-1.728-1.727z" fill="#000"/>
  <path fill-rule="evenodd" clip-rule="evenodd" d="M13.818 17.273c0-.954.774-1.727 1.728-1.727H19c.954 0 1.727.773 1.727 1.727v6.909h1.727a1.727 1.727 0 110 3.454h-6.909a1.727 1.727 0 010-3.454h1.728V19h-1.727a1.727 1.727 0 01-1.728-1.727z" fill="url(#0k0AuamWPc)"/>
  <defs>
    <linearGradient id="0k0AuamWPa" x1="0" y1="38" x2="40.85" y2="38" gradientUnits="userSpaceOnUse">
      <stop stop-color="#C9FF00"/>
      <stop offset="1" stop-color="#1CD5CF"/>
    </linearGradient>
    <linearGradient id="0k0AuamWPb" x1="0" y1="38" x2="40.85" y2="38" gradientUnits="userSpaceOnUse">
      <stop stop-color="#C9FF00"/>
      <stop offset="1" stop-color="#1CD5CF"/>
    </linearGradient>
    <linearGradient id="0k0AuamWPc" x1="0" y1="38" x2="40.85" y2="38" gradientUnits="userSpaceOnUse">
      <stop stop-color="#C9FF00"/>
      <stop offset="1" stop-color="#1CD5CF"/>
    </linearGradient>
  </defs>
</svg>
