<svg xmlns="http://www.w3.org/2000/svg" fill="none" viewBox="0 0 4134 709">
  <path d="M1041.12 31.396c31.15 1.522 62.29 6.782 91.35 19.1 26.85 10.934 51.07 28.235 77.23 40.83 124.02 56.608 259.1 2.907 383.39-26.02 50.1-12.595 100.76-24.637 152.11-28.235 58.13-.83 116.4 1.799 174.39-7.06 90.38-10.518 181.17-30.725 272.38-21.452 40.97 5.951 80 21.73 117.93 39.169 99.65 44.013 194.46 115.016 304.21 121.798 117.23-.139 184.78-131.763 292.04-163.182 14.81-3.045 31.83-8.442 46.37-3.045 17.99 11.627 33.08 27.959 48.16 43.875 36.4 39.03 70.04 81.66 110.31 116.262 13.29 12.041 28.79 19.93 43.74 29.065 17.58 11.488 33.91 24.913 50.24 38.477 71.69 58.131 136.88 130.933 220.76 167.887 32.25 12.733 66.85 8.996 100.48 7.474 48.17-2.768 95.78 11.903 138.41 35.847 157.23 85.397 309.47 181.59 467.95 264.218-184.5-7.889-368.85-15.778-553.35-23.667-116.26-3.876-232.38-13.149-348.64-10.934-219.79 5.121-438.48 43.459-658.68 34.048-310.58-18.547-611.62-117.646-920.26-154.324-108.24-13.01-217.44-12.456-325.95-5.536-112.25 7.751-224.22 21.73-336.745 22.56-125.673.831-251.208-8.858-376.881-13.01C408.469 546.545 204.734 537.964 1 529.106c57.3-31.696 119.306-51.626 182.558-62.007 63.39-11.349 129.549-12.733 189.34-40.691 104.497-50.795 166.088-163.181 251.9-240.55 35.57-28.374 77.646-45.536 116.123-68.788 38.477-19.239 74.047-46.367 114.739-59.377 60.622-16.747 126.226-4.014 185.46-26.297z" stroke="url(#s3fLchI6Cna)" stroke-width="1.5" stroke-miterlimit="10" stroke-linecap="round" stroke-linejoin="round"/>
  <path d="M83.767 492.151c198.198 10.934 396.672 12.179 595.009 17.439 125.258 1.522 250.516 14.256 375.774 10.519 107.68-2.907 214.67-17.993 322.21-24.913 106.3-6.644 213.42-5.537 319.16 9.411 171.49 24.498 339.93 68.511 509.62 104.082 118.61 24.913 238.33 48.027 359.44 50.657 203.46 7.058 404.56-35.294 607.6-41.246 110.04-2.352 220.07 7.059 330.1 10.796 177.16 8.028 354.32 16.47 531.62 23.944" stroke="url(#s3fLchI6Cnb)" stroke-width="1.5" stroke-miterlimit="10" stroke-linecap="round" stroke-linejoin="round"/>
  <path d="M158.783 471.667c193.216 10.103 386.57.276 579.785-.692 124.981-2.769 249.824 10.795 374.662 4.013 103.81-4.982 206.92-20.069 310.59-27.404 113.77-8.028 228.65-6.367 341.17 15.225 151 27.542 298.82 71.279 448.3 106.988 118.61 28.511 238.89 53.148 360.82 51.487 186.85 0 370.24-47.75 556.68-55.363 103.66-3.321 207.19 6.505 310.86 10.242 166.78 8.305 333.69 17.301 500.47 24.637" stroke="url(#s3fLchI6Cnc)" stroke-width="1.5" stroke-miterlimit="10" stroke-linecap="round" stroke-linejoin="round"/>
  <path d="M227.156 460.457c188.371 7.75 376.327-14.81 564.421-23.529 127.888-8.443 255.773 6.089 383.523-4.429 220.48-17.163 444.84-64.636 663.52-6.229 133.7 31.419 264.22 76.401 396.81 112.525 111.42 30.726 225.74 55.778 341.18 48.719 173.83-7.059 342.55-61.176 516.11-71.418 96.75-4.983 193.5 5.398 290.1 9.273 157.92 8.72 315.71 18.547 473.63 25.744" stroke="url(#s3fLchI6Cnd)" stroke-width="1.5" stroke-miterlimit="10" stroke-linecap="round" stroke-linejoin="round"/>
  <path d="M290.131 451.044c186.71 5.814 371.206-31.003 556.809-46.504 127.334-13.01 255.36 2.353 382.69-11.626 224.91-19.792 454.95-73.217 675.98 1.937 116.82 34.325 230.59 79.723 346.99 115.847 103.52 32.802 210.93 56.885 319.02 45.12 164.84-12.872 323.04-74.047 487.89-86.365 92.04-5.952 184.21 5.259 276.25 9.134 147.27 8.997 294.4 19.377 441.66 26.298" stroke="url(#s3fLchI6Cne)" stroke-width="1.5" stroke-miterlimit="10" stroke-linecap="round" stroke-linejoin="round"/>
  <path d="M348.814 436.235c179.79 5.674 355.843-41.245 533.696-62.422 65.604-8.027 131.62-11.072 197.64-8.027 57.03 1.107 114.05-1.799 170.8-6.921 156.26-13.84 311.69-43.874 468.78-40.691 70.86.277 140.34 17.993 207.89 40.138 110.17 36.262 216.6 85.12 326.22 122.905 97.16 34.601 199.31 57.577 301.73 44.013 157.36-15.917 306.57-82.629 464.21-97.023 87.34-7.059 174.95 4.429 262.14 8.443 141.04 9.412 281.94 20.484 423.11 27.128" stroke="url(#s3fLchI6Cnf)" stroke-width="1.5" stroke-miterlimit="10" stroke-linecap="round" stroke-linejoin="round"/>
  <path d="M404.455 408.693c172.593 6.782 340.895-43.321 511.135-65.743 65.328-9.135 131.35-11.488 197.09-8.443 52.73.692 105.47-2.491 157.92-7.612 152.94-14.394 305.19-45.12 459.24-40.83 68.92.831 136.46 18.131 201.79 40.83 196.54 65.882 387.96 192.662 600.13 166.365 152.39-15.779 295.5-85.259 448.02-99.93 83.32-6.782 166.78 3.876 250.1 8.166 136.61 9.689 273.08 22.145 409.83 27.82" stroke="url(#s3fLchI6Cng)" stroke-width="1.5" stroke-miterlimit="10" stroke-linecap="round" stroke-linejoin="round"/>
  <path d="M456.635 366.893c165.811 5.26 328.577-36.124 492.727-54.67 112.388-15.087 225.738-.692 338.128-15.225 254.53-27.82 439.44-74.463 689.26 28.65 175.92 63.944 354.05 160.136 544.08 133.147 147.26-17.716 286.36-84.566 434.73-94.116 210.66-3.46 419.37 40.415 629.89 46.366" stroke="url(#s3fLchI6Cnh)" stroke-width="1.5" stroke-miterlimit="10" stroke-linecap="round" stroke-linejoin="round"/>
  <path d="M505.215 316.791c156.676 6.228 311.968-22.837 467.814-35.294 111.421-11.073 223.391 2.906 334.531-10.934 360.55-43.737 445.67-42.214 791.13 87.196 132.73 47.058 272.24 89.41 412.73 67.819 116.81-15.501 228.37-60.207 344.91-77.784 87.05-13.841 175.36-2.63 262.41 7.058 140.76 17.301 280.69 45.259 422.42 51.072" stroke="url(#s3fLchI6Cni)" stroke-width="1.5" stroke-miterlimit="10" stroke-linecap="round" stroke-linejoin="round"/>
  <path d="M550.612 264.75c152.247 8.304 304.079-9.135 456.188-14.118 68.65-3.46 137.16 1.246 205.81 2.215 65.05-.416 129.83-7.474 194.46-13.841 90.52-9.135 182.01-15.086 272.52-3.46 148.65 18.685 290.93 71.002 434.6 114.462 126.5 38.062 258.96 65.466 390.17 44.844 104.36-15.363 205.12-51.764 309.61-66.851 90.24-13.979 181.59-.83 271.14 13.287 139.1 22.699 276.81 58.269 417.71 66.02" stroke="url(#s3fLchI6Cnj)" stroke-width="1.5" stroke-miterlimit="10" stroke-linecap="round" stroke-linejoin="round"/>
  <path d="M592.688 216.998c199.028 13.01 398.61-2.353 597.502 11.211 120.69 6.367 240.41-18.131 361.1-15.917 74.88.277 149.06 13.841 221.59 33.356 111.69 25.467 220.76 62.56 332.04 90.38 125.81 31.833 256.74 52.594 385.46 31.695 104.77-16.194 206.5-51.626 312.1-61.729 84.71-8.443 169.55 6.366 252.6 22.837 136.6 27.543 271.41 69.203 410.51 78.476" stroke="url(#s3fLchI6Cnk)" stroke-width="1.5" stroke-miterlimit="10" stroke-linecap="round" stroke-linejoin="round"/>
  <path d="M631.995 179.906c131.071 8.028 262.28 11.626 393.485 16.886 78.76 1.938 157.37 9.827 236.13 9.827 97.3-1.523 194.04-18.824 291.48-14.256 85.54 2.076 168.44 25.328 250.24 50.795 90.1 26.574 180.07 53.979 271.41 75.155 126.92 29.065 258.55 49.688 387.82 27.543 109.2-17.301 215.77-53.702 326.22-60.761 217.72-9.688 422 100.206 637.78 113.493" stroke="url(#s3fLchI6Cnl)" stroke-width="1.5" stroke-miterlimit="10" stroke-linecap="round" stroke-linejoin="round"/>
  <path d="M668.672 157.346c202.765 8.027 405.388 24.082 608.158 29.203 81.11-.968 161.38-15.363 242.49-16.47 94.39-2.63 187.95 17.855 277.23 50.518 82.49 28.097 164.84 56.885 248.71 79.169 119.59 33.079 244.15 49.134 366.64 26.159 122.08-18.962 241.94-56.332 365.67-61.453 75.99-3.737 151.14 13.703 225.19 30.45 125.81 29.203 250.1 70.725 378.95 80.414" stroke="url(#s3fLchI6Cnm)" stroke-width="1.5" stroke-miterlimit="10" stroke-linecap="round" stroke-linejoin="round"/>
  <path d="M703.136 138.105c130.379 5.537 260.342 16.748 390.584 25.329 82.77 4.152 165.95 13.84 248.72 5.951 63.8-5.951 127.05-18.546 191.13-22.145 166.09-14.532 319.03 66.851 473.91 119.03 71.55 23.944 145.32 44.151 220.48 45.536 37.23.553 74.32-5.814 111.28-10.243 152.25-19.93 304.22-55.777 458.26-49.549 180.07 16.332 355.01 73.079 535.22 87.75" stroke="url(#s3fLchI6Cnn)" stroke-width="1.5" stroke-miterlimit="10" stroke-linecap="round" stroke-linejoin="round"/>
  <path d="M735.661 119.975c187.126 7.474 373.009 41.245 560.269 42.075 73.08-2.906 144.08-24.498 215.91-37.093 60.35-10.796 122.08-12.872 182.56-1.799 169.27 32.664 319.58 146.296 493.28 157.506 31.14 2.353 62.01-2.906 92.74-7.889 37.37-5.674 74.87-10.657 112.38-14.671 106.16-11.764 212.87-16.332 319.44-14.394 191 5.259 379.79 43.598 570.51 54.394" stroke="url(#s3fLchI6Cno)" stroke-width="1.5" stroke-miterlimit="10" stroke-linecap="round" stroke-linejoin="round"/>
  <path d="M766.388 102.952c114.323 6.228 227.678 23.806 341.312 37.37 73.08 6.92 146.99 20.622 220.34 11.072 86.23-11.349 166.5-51.625 252.45-64.359 94.54-16.885 184.36 10.934 270.87 51.072 108.64 46.367 217.02 108.373 335.91 111.279 41.66.554 81.66-14.117 122.9-18.27 79.31-10.795 159.45-8.442 239.03-2.491 227.82 20.069 456.6 18.131 684.84 26.989" stroke="url(#s3fLchI6Cnp)" stroke-width="1.5" stroke-miterlimit="10" stroke-linecap="round" stroke-linejoin="round"/>
  <path d="M795.453 86.76c109.756 6.367 218.127 27.128 326.917 43.044 67.26 8.028 135.5 22.145 203.32 14.671 79.86-9.411 152.38-50.38 228.78-74.462 95.64-31.419 175.37-19.792 266.02 22.422 114.88 48.303 226.02 123.32 351.83 128.441 40.42 2.214 78.2-15.779 117.78-21.73 61.6-10.657 124.57-5.813 185.88 4.429 67.68 11.211 134.95 26.851 203.32 31.418 170.1 2.907 339.65-19.792 509.75-17.439" stroke="url(#s3fLchI6Cnq)" stroke-width="1.5" stroke-miterlimit="10" stroke-linecap="round" stroke-linejoin="round"/>
  <path d="M822.996 71.394c109.895 5.951 217.854 30.311 326.504 47.75 69.06 9.55 139.65 23.667 209.13 12.456 76.95-12.456 146.02-53.978 219.79-78.891 103.25-36.816 181.17-16.747 277.09 31.556 103.66 47.612 206.5 120.968 322.76 115.847 38.34-2.215 72.11-24.914 109.9-30.588 56.74-11.35 114.74-2.215 170.1 12.595 61.87 16.332 123.32 37.093 187.26 41.799 169 7.335 335.91-39.308 504.91-34.602" stroke="url(#s3fLchI6Cnr)" stroke-width="1.5" stroke-miterlimit="10" stroke-linecap="round" stroke-linejoin="round"/>
  <path d="M852.615 58.523c112.663 4.706 222.695 34.187 333.835 52.041 68.93 9.965 139.65 20.761 208.58 6.367 70.73-14.118 136.33-48.027 205.26-68.927 107.4-35.155 185.74-13.01 284.98 35.294 95.08 42.214 192.1 104.912 298.26 93.424 36.68-5.674 69.76-26.712 107.13-29.065 59.79-7.612 119.3 8.72 176.47 26.297 78.33 26.713 159.72 42.214 241.93 35.847 136.47-7.197 270.59-50.518 407.61-42.214" stroke="url(#s3fLchI6Cns)" stroke-width="1.5" stroke-miterlimit="10" stroke-linecap="round" stroke-linejoin="round"/>
  <path d="M890.953 51.188c164.147 5.398 322.067 84.151 487.327 66.02 79.86-10.242 154.6-44.705 232.11-66.297 128.72-40.276 220.62-3.598 340.76 43.737 75.01 27.82 153.9 59.1 234.32 47.612 19.51-2.492 37.78-10.934 57.02-14.948 25.75-5.675 52.04-6.505 78.06-3.875 104.36 10.934 199.03 72.94 304.64 75.985 154.87 10.795 301.03-74.186 455.77-64.775" stroke="url(#s3fLchI6Cnt)" stroke-width="1.5" stroke-miterlimit="10" stroke-linecap="round" stroke-linejoin="round"/>
  <path d="M933.998 47.175c107.542 2.907 207.882 50.38 313.352 67.127 160 31.418 284.29-46.643 436.4-71.833 139.37-21.453 271.96 46.92 408.99 61.314 29.75 3.045 59.79 3.599 89.41-.83 26.85-4.568 53.28-12.872 80.69-11.488 119.44 2.492 222.56 83.736 339.79 99.099 154.18 20.346 289.13-101.175 441.93-95.223" stroke="url(#s3fLchI6Cnu)" stroke-width="1.5" stroke-miterlimit="10" stroke-linecap="round" stroke-linejoin="round"/>
  <path d="M976.627 44.13c99.513 1.245 187.543 58.96 284.563 74.047 173.98 31.833 335.64-81.384 508.37-75.155 105.6 1.384 209.96 22.837 315.43 25.19 33.91.692 67.81-.692 101.45-5.952 35.57-7.474 72.25-4.429 107.4 4.845 113.49 28.788 213.42 109.756 331.35 119.583 49.41 1.107 97.02-16.747 141.59-38.477 78.2-37.37 154.32-93.84 242.62-92.04" stroke="url(#s3fLchI6Cnv)" stroke-width="1.5" stroke-miterlimit="10" stroke-linecap="round" stroke-linejoin="round"/>
  <path d="M1014 39.702c35.15 1.938 70.17 8.72 103.11 22.007 36.68 14.532 71 35.432 108.79 46.92 122.07 38.338 247.05-7.613 366.22-37.647 46.64-12.041 93.7-23.114 141.59-26.712 35.29-2.353 70.73.415 106.16-.554 85.67-.415 171.21-2.768 256.74-8.443 82.77-5.813 125.67-17.854 207.61 16.332 108.1 40 207.61 121.244 324.01 128.165 56.75-1.661 107.68-33.356 154.46-65.744 59.66-40.691 120.97-92.178 194.6-91.07" stroke="url(#s3fLchI6Cnw)" stroke-width="1.5" stroke-miterlimit="10" stroke-linecap="round" stroke-linejoin="round"/>
  <path d="M2902.55 7.174c56.89 41.522 95.09 107.403 148.65 153.631 27.13 23.252 58.41 39.584 85.12 63.667 64.22 52.318 125.26 110.31 194.74 154.738 76.54 45.398 142.28-2.629 236.81 48.858 157.79 85.673 306.99 189.201 465.33 273.906" stroke="url(#s3fLchI6Cnx)" stroke-width="1.5" stroke-miterlimit="10" stroke-linecap="round" stroke-linejoin="round"/>
  <path d="M2859.09 26.967c58 43.044 93.7 114.462 152.94 156.122 60.76 40.415 116.96 88.719 175.92 132.178 33.49 23.391 65.32 52.18 103.66 65.467 33.64 11.487 69.21 8.719 103.95 12.733 43.04 4.152 84.15 20.761 121.66 43.598 140.34 83.736 273.76 180.897 416.18 260.619" stroke="url(#s3fLchI6Cny)" stroke-width="1.5" stroke-miterlimit="10" stroke-linecap="round" stroke-linejoin="round"/>
  <path d="M2817.71 55.617c44.43 32.387 71.83 85.674 113.63 121.521 79.17 58.131 162.63 109.48 243.87 164.012 65.61 48.027 150.04 29.065 220.07 65.051 66.44 32.387 126.5 78.615 187.96 120.829 81.93 57.853 164.28 115.154 249.96 166.226" stroke="url(#s3fLchI6Cnz)" stroke-width="1.5" stroke-miterlimit="10" stroke-linecap="round" stroke-linejoin="round"/>
  <path d="M2777.29 88.559c35.71 24.636 55.78 67.957 88.31 96.469 38.06 32.387 84.01 51.349 126.5 75.708 51.07 25.467 99.1 57.854 149.9 83.736 37.92 16.055 78.89 20.069 118.06 31.418 53.56 14.118 101.73 44.29 147.26 77.231 108.37 78.753 212.32 165.119 325.67 235.706" stroke="url(#s3fLchI6CnA)" stroke-width="1.5" stroke-miterlimit="10" stroke-linecap="round" stroke-linejoin="round"/>
  <path d="M2736.33 121.084c23.53 14.809 36.26 41.937 54.67 62.56 39.03 43.598 96.74 55.501 146.71 77.922 42.9 16.332 83.73 37.509 123.46 61.453 28.51 14.532 59.23 22.56 89.55 31.695 61.86 16.609 119.99 46.228 171.48 87.196 103.53 80.553 200.69 170.932 309.89 242.765" stroke="url(#s3fLchI6CnB)" stroke-width="1.5" stroke-miterlimit="10" stroke-linecap="round" stroke-linejoin="round"/>
  <path d="M2693.7 148.35c22.28 12.871 29.06 41.798 48.99 57.715 26.02 23.252 60.21 30.034 91.91 39.169 47.47 13.01 97.16 23.944 138.96 53.287 40.41 25.605 86.08 37.646 129.54 54.947 42.63 16.47 83.6 38.2 120.42 66.85 104.77 83.321 197.5 184.219 307.54 260.066" stroke="url(#s3fLchI6CnC)" stroke-width="1.5" stroke-miterlimit="10" stroke-linecap="round" stroke-linejoin="round"/>
  <path d="M2648.02 165.65c17.44 8.858 18.27 31.695 32.67 43.598 48.02 44.706 136.19 28.235 195.29 60.622 82.63 57.993 183.66 75.709 263.11 140.483 100.48 83.598 184.63 189.063 290.51 265.602" stroke="url(#s3fLchI6CnD)" stroke-width="1.5" stroke-miterlimit="10" stroke-linecap="round" stroke-linejoin="round"/>
  <path d="M2598.06 168.279c17.58 13.011 11.35 14.395 17.58 31.557 41.38 57.162 128.85 31.141 186.01 61.037 22.29 10.796 41.25 28.512 63.95 38.754 63.53 31.972 131.21 56.193 187.82 102.421 46.09 37.646 85.25 84.013 126.22 128.026 46.51 50.657 95.09 99.237 148.24 141.451" stroke="url(#s3fLchI6CnE)" stroke-width="1.5" stroke-miterlimit="10" stroke-linecap="round" stroke-linejoin="round"/>
  <path d="M2544.36 156.791c21.31 11.073 10.1 24.36 20.2 40.415 39.45 48.442 134.95 38.477 191.01 79.168 71 45.951 152.24 72.525 217.29 129.687 89.28 83.321 160.69 187.264 254.39 265.464" stroke="url(#s3fLchI6CnF)" stroke-width="1.5" stroke-miterlimit="10" stroke-linecap="round" stroke-linejoin="round"/>
  <path d="M2488.44 135.617c27.54 11.626 9.14 44.429 34.74 60.345 30.31 26.99 68.1 40.277 103.53 57.162 33.22 14.81 64.08 35.017 95.91 53.01 60.63 33.633 122.36 66.85 174.26 115.708 80.55 80.967 146.71 177.714 231.41 254.114" stroke="url(#s3fLchI6CnG)" stroke-width="1.5" stroke-miterlimit="10" stroke-linecap="round" stroke-linejoin="round"/>
  <path d="M2431 108.49c25.75 8.581 18.27 41.661 30.45 61.591 57.72 66.989 131.21 114.877 205.67 156.538 50.94 29.896 99.79 64.22 143.25 106.158 77.37 78.753 139.79 173.561 219.24 250.377" stroke="url(#s3fLchI6CnH)" stroke-width="1.5" stroke-miterlimit="10" stroke-linecap="round" stroke-linejoin="round"/>
  <path d="M2373.01 78.732c33.63 12.457 21.04 60.899 42.91 84.428 16.74 16.748 26.98 40.553 41.79 59.515 20.9 29.896 45.68 56.608 74.05 78.061 39.59 27.958 83.88 47.335 121.25 79.446 109.34 84.704 182.14 210.793 277.92 311.276" stroke="url(#s3fLchI6CnI)" stroke-width="1.5" stroke-miterlimit="10" stroke-linecap="round" stroke-linejoin="round"/>
  <path d="M2315.57 50.08c30.59 13.149 29.07 54.948 38.89 83.736 3.05 9.965 7.75 18.962 15.37 25.467 5.12 9.135 9.41 18.685 13.56 28.373 22.42 57.577 52.87 117.231 106.71 145.05 148.37 76.539 231.28 241.796 341.87 366.639" stroke="url(#s3fLchI6CnJ)" stroke-width="1.5" stroke-miterlimit="10" stroke-linecap="round" stroke-linejoin="round"/>
  <path d="M2259.24 26.275c34.19 18.547 31.97 67.958 42.49 102.698 2.77 17.162 15.36 27.958 20.35 43.736 10.79 32.111 16.19 66.436 30.45 97.162 31.14 70.587 73.63 68.234 124.01 108.649 38.61 31.003 69.06 71.833 99.24 111.971 53.84 69.895 101.31 145.05 155.56 214.668" stroke="url(#s3fLchI6CnK)" stroke-width="1.5" stroke-miterlimit="10" stroke-linecap="round" stroke-linejoin="round"/>
  <path d="M2204.98 10.496c36.54 25.19 32.81 85.95 43.33 127.057 2.07 18.131 13.28 31.28 17.71 48.304 6.37 26.989 7.75 55.363 15.64 81.937 10.38 42.767 42.08 73.493 80 86.088 60.62 28.097 97.58 90.38 134.25 146.85 45.54 67.68 86.65 138.545 132.6 205.949" stroke="url(#s3fLchI6CnL)" stroke-width="1.5" stroke-miterlimit="10" stroke-linecap="round" stroke-linejoin="round"/>
  <path d="M2153.5 6.069c33.91 33.632 30.31 93.84 37.92 139.79 1.8 19.377 6.09 37.923 13.15 55.639 4.29 20.623 4.01 42.214 8.3 62.837 18.13 97.438 82.63 64.774 136.2 134.116 24.91 29.342 42.9 64.636 62.28 98.407 40.55 66.297 69.2 139.79 110.59 205.81" stroke="url(#s3fLchI6CnM)" stroke-width="1.5" stroke-miterlimit="10" stroke-linecap="round" stroke-linejoin="round"/>
  <path d="M2103.39 7.59c30.73 41.107 25.75 99.652 30.45 149.617.56 16.747 3.46 33.079 6.09 49.411 1.94 21.315 3.6 42.906 9.28 63.529 17.85 70.726 62.69 59.238 104.49 101.452 26.16 24.775 44.71 57.3 61.59 89.964 10.66 21.453 23.53 41.937 30.73 65.189 15.36 55.225 26.99 111.971 55.78 161.659" stroke="url(#s3fLchI6CnN)" stroke-width="1.5" stroke-miterlimit="10" stroke-linecap="round" stroke-linejoin="round"/>
  <path d="M2053.84 12.018c43.88 74.6-5.67 181.312 35.71 264.91 35.99 78.614 87.48 28.65 152.39 188.786 12.04 31.833 6.64 66.573 7.06 100.068 0 34.601 7.33 68.649 21.04 100.068" stroke="url(#s3fLchI6CnO)" stroke-width="1.5" stroke-miterlimit="10" stroke-linecap="round" stroke-linejoin="round"/>
  <path d="M2004.57 18.385c18.82 33.91 10.38 76.677 3.18 113.354-3.73 17.717-10.79 34.048-6.5 52.595 27.96 159.306 85.81 105.327 135.36 211.07 45.12 82.767-38.48 138.96-5.26 243.318" stroke="url(#s3fLchI6CnP)" stroke-width="1.5" stroke-miterlimit="10" stroke-linecap="round" stroke-linejoin="round"/>
  <path d="M1955.3 25.305c12.87 26.159.28 56.747-13.15 79.584-13.01 18.408-16.75 23.944-12.18 48.165 8.86 45.536 25.88 90.379 50.38 128.58 10.38 15.916 26.99 23.944 39.86 36.816 18.96 17.301 31.28 42.906 35.99 69.48-.56 72.663-82.63 128.856-66.16 222.142" stroke="url(#s3fLchI6CnQ)" stroke-width="1.5" stroke-miterlimit="10" stroke-linecap="round" stroke-linejoin="round"/>
  <path d="M1905.61 31.533c9.69 31.834-29.89 40-45.81 55.778-14.26 34.878 41.8 155.292 61.59 188.371 76.95 66.02 35.43 108.511-13.7 173.977-28.1 38.062-58.83 81.383-57.03 132.87" stroke="url(#s3fLchI6CnR)" stroke-width="1.5" stroke-miterlimit="10" stroke-linecap="round" stroke-linejoin="round"/>
  <path d="M1855.51 35.963c3.18 26.297-62.7 1.8-66.3 27.404-2.77 43.598 25.74 91.625 40.55 131.486 9.69 21.038 17.03 43.599 25.19 65.052 6.79 11.902 17.72 20.207 18.27 35.57 6.23 24.775-4.43 48.027-19.65 66.573-20.07 26.159-43.88 49.135-65.88 73.771-30.59 34.879-64.91 74.048-69.34 124.427" stroke="url(#s3fLchI6CnS)" stroke-width="1.5" stroke-miterlimit="10" stroke-linecap="round" stroke-linejoin="round"/>
  <path d="M1804.44 37.208c-2.08 15.778-24.09.692-33.08.276-13.57-2.768-29.9-6.505-42.91-.415-23.94 23.806 49.27 139.791 55.64 175.776 3.74 10.935 2.63 22.007 3.32 33.08 2.36 12.871 3.19 25.328 1.94 38.615 3.32 49.826-77.37 103.805-108.65 138.13-33.91 34.324-73.63 71.279-83.18 123.043" stroke="url(#s3fLchI6CnT)" stroke-width="1.5" stroke-miterlimit="10" stroke-linecap="round" stroke-linejoin="round"/>
  <path d="M1751.57 36.654c-5.96 17.024-28.1-1.8-39.45-2.492-14.53-2.906-35.02-7.473-47.2 3.738-13.28 31.971 38.76 110.171 43.74 148.925 2.77 12.18-.69 24.083-.55 36.262 0 23.114-.97 45.674-3.6 68.927-11.77 47.058-102.29 106.434-137.16 143.942-30.18 29.758-62.56 61.868-75.16 105.189" stroke="url(#s3fLchI6CnU)" stroke-width="1.5" stroke-miterlimit="10" stroke-linecap="round" stroke-linejoin="round"/>
  <path d="M1693.99 43.159c-5.82 13.702-19.8 3.322-29.07.415-83.04-22.006-60.48 29.066-42.21 88.027 4.43 15.778 9.69 32.248 7.47 48.857-4.98 18.408-3.04 37.924-4.84 56.885-4.71 66.297-4.57 71.556-51.77 116.4-60.2 58.684-137.43 106.296-173.56 188.371" stroke="url(#s3fLchI6CnV)" stroke-width="1.5" stroke-miterlimit="10" stroke-linecap="round" stroke-linejoin="round"/>
  <path d="M1632.95 55.48c-5.81 13.84-18.13 3.045-27.27.138-11.07-4.152-23.25-3.46-34.46.277-35.02 6.367-14.39 54.671-12.46 79.861 2.08 14.947 3.74 31.556-4.42 44.566-2.5 19.793-5.26 39.446-9 58.962-13.29 68.788-9.14 74.877-60.35 123.181-58.68 57.439-129.54 106.712-168.3 183.942" stroke="url(#s3fLchI6CnW)" stroke-width="1.5" stroke-miterlimit="10" stroke-linecap="round" stroke-linejoin="round"/>
  <path d="M1569.84 71.257c-8.45 18.961-17.58-7.336-38.62.83-51.76 8.72-24.22 57.577-37.37 94.947-1.52 5.259-4.7 8.72-7.47 13.01-2.08 9.273-4.29 18.27-6.92 27.266-7.34 26.297-17.03 51.487-25.19 77.646-5.82 21.453-13.01 41.937-28.38 57.992-61.03 70.865-141.17 124.566-187.54 209.825" stroke="url(#s3fLchI6CnX)" stroke-width="1.5" stroke-miterlimit="10" stroke-linecap="round" stroke-linejoin="round"/>
  <path d="M1506.17 87.588c-5.4 9.827-4.15 9.55-11.63 2.906-6.78-5.12-39.44 12.042-42.9 20.208-9.83 15.64-9.14 35.847-16.61 52.733-3.05 8.027-8.03 14.532-13.29 20.761a473.588 473.588 0 01-20.34 47.888c-10.25 21.176-20.9 41.937-30.73 63.529-10.1 24.636-21.87 47.888-39.86 66.988-56.75 65.051-124.57 120.414-169.55 196.814" stroke="url(#s3fLchI6CnY)" stroke-width="1.5" stroke-miterlimit="10" stroke-linecap="round" stroke-linejoin="round"/>
  <path d="M1443.19 102.262c-1.52 2.629-2.9 6.228-4.42 8.166.41-12.734-14.54 4.152-19.24 5.398-11.91 5.259-21.73 14.394-28.65 26.158-9.55 18.547-21.18 35.156-34.47 50.657-25.74 47.889-58.13 90.933-84.84 138.268-22.97 38.754-54.95 69.895-84.29 102.836-37.92 41.384-75.71 83.459-106.85 131.348" stroke="url(#s3fLchI6CnZ)" stroke-width="1.5" stroke-miterlimit="10" stroke-linecap="round" stroke-linejoin="round"/>
  <path d="M1382.3 112.641c-1.53 2.076-7.2 12.318-2.08 5.951.42-.554.69-.969.83-1.522-.41-.416-.97.415-1.52.692-8.58 8.858-18.69 15.64-28.65 22.56-33.63 25.328-61.45 58.131-86.64 93.286-23.81 30.588-48.03 60.622-71.28 91.902-61.59 86.089-138.41 157.368-200.97 242.765" stroke="url(#s3fLchI6Cnaa)" stroke-width="1.5" stroke-miterlimit="10" stroke-linecap="round" stroke-linejoin="round"/>
  <path d="M1325.14 116.102c-2.22 2.768-4.43 5.121-6.23 7.889.14.138.27-.139.41-.277 1.25-1.107 2.49-2.491 3.6-3.599-1.25 1.384-2.35 2.768-3.87 4.291-23.67 30.034-62.15 36.816-87.62 64.636-113.07 125.811-225.88 251.899-338.953 378.126" stroke="url(#s3fLchI6Cnab)" stroke-width="1.5" stroke-miterlimit="10" stroke-linecap="round" stroke-linejoin="round"/>
  <path d="M1275.45 111.809c-14.26 17.024-5.13-1.661-14.4 6.505-20.21 24.774-49.27 34.324-75.57 49.134-45.12 30.173-79.72 75.847-118.89 114.601-92.317 96.192-190.447 185.187-283.871 280.549" stroke="url(#s3fLchI6Cnac)" stroke-width="1.5" stroke-miterlimit="10" stroke-linecap="round" stroke-linejoin="round"/>
  <path d="M1237.11 102.398c-11.35 14.118-17.72 3.461-30.31 6.782-11.35 4.983-19.1 16.609-30.04 22.699-16.19 10.796-34.18 17.578-51.07 26.851-69.76 39.307-117.37 111.14-177.16 164.98-88.026 83.875-187.817 150.725-276.397 234.046" stroke="url(#s3fLchI6Cnad)" stroke-width="1.5" stroke-miterlimit="10" stroke-linecap="round" stroke-linejoin="round"/>
  <path d="M1206.52 89.664c-16.05 16.055-38.34 3.322-57.02 10.519-14.12 5.121-24.36 17.854-37.65 24.913-20.48 12.457-42.35 21.592-62.84 33.91-75.704 44.013-124.977 124.565-191.135 182.004-91.764 82.352-203.735 131.071-296.605 212.177" stroke="url(#s3fLchI6Cnae)" stroke-width="1.5" stroke-miterlimit="10" stroke-linecap="round" stroke-linejoin="round"/>
  <path d="M1179.95 75.13c-32.94 21.454-76.82-1.522-108.51 25.606-41.25 30.311-89.415 47.473-129.969 79.169-41.66 32.248-73.909 76.677-110.033 115.846-36.677 40.968-76.123 79.86-122.628 106.85-86.504 48.303-179.098 83.597-258.82 145.741" stroke="url(#s3fLchI6Cnaf)" stroke-width="1.5" stroke-miterlimit="10" stroke-linecap="round" stroke-linejoin="round"/>
  <path d="M1153.79 60.46c-37.1 20.07-81.11 5.814-120 19.24-21.87 6.781-39.447 23.805-59.793 34.186-33.771 19.238-68.096 37.369-100.206 59.653-35.571 24.498-62.698 60.622-91.21 93.839-38.2 45.259-76.954 91.349-123.874 125.95-49.549 34.048-106.711 49.688-161.382 70.449-55.362 20.346-108.925 46.366-158.752 79.861" stroke="url(#s3fLchI6Cnag)" stroke-width="1.5" stroke-miterlimit="10" stroke-linecap="round" stroke-linejoin="round"/>
  <path d="M1124.31 47.313c-45.95 20.899-98.27 8.027-145.883 22.006-26.575 6.644-47.889 26.297-72.249 38.892-39.307 22.976-79.722 44.29-117.23 70.864-82.629 71.141-137.299 179.098-231.277 235.43-50.934 27.82-107.68 37.37-162.351 52.871-58.823 15.917-116.123 38.892-169.132 71.556" stroke="url(#s3fLchI6Cnah)" stroke-width="1.5" stroke-miterlimit="10" stroke-linecap="round" stroke-linejoin="round"/>
  <path d="M1088.04 37.07c-54.39 22.007-115.15 8.997-170.928 25.19-32.249 9.274-59.377 32.387-89.411 47.612-39.861 23.806-81.66 44.29-119.306 71.971-83.736 74.325-140.76 184.219-238.059 240.136-55.501 28.788-117.507 33.909-177.16 46.504-62.283 12.318-123.182 33.356-179.375 65.605" stroke="url(#s3fLchI6Cnai)" stroke-width="1.5" stroke-miterlimit="10" stroke-linecap="round" stroke-linejoin="round"/>
  <defs>
    <linearGradient id="s3fLchI6Cna" x1="2066.79" y1="1" x2="2066.79" y2="707.331" gradientUnits="userSpaceOnUse">
      <stop stop-color="#fff" stop-opacity="0"/>
      <stop offset="1" stop-color="#fff"/>
    </linearGradient>
    <linearGradient id="s3fLchI6Cnb" x1="2059.03" y1="491.312" x2="2059.03" y2="660.136" gradientUnits="userSpaceOnUse">
      <stop stop-color="#fff" stop-opacity="0"/>
      <stop offset="1" stop-color="#fff"/>
    </linearGradient>
    <linearGradient id="s3fLchI6Cnc" x1="2050.45" y1="443.155" x2="2050.45" y2="621.363" gradientUnits="userSpaceOnUse">
      <stop stop-color="#fff" stop-opacity="0"/>
      <stop offset="1" stop-color="#fff"/>
    </linearGradient>
    <linearGradient id="s3fLchI6Cnd" x1="2041.8" y1="398.002" x2="2041.8" y2="588.715" gradientUnits="userSpaceOnUse">
      <stop stop-color="#fff" stop-opacity="0"/>
      <stop offset="1" stop-color="#fff"/>
    </linearGradient>
    <linearGradient id="s3fLchI6Cne" x1="2033.78" y1="355.967" x2="2033.78" y2="558.847" gradientUnits="userSpaceOnUse">
      <stop stop-color="#fff" stop-opacity="0"/>
      <stop offset="1" stop-color="#fff"/>
    </linearGradient>
    <linearGradient id="s3fLchI6Cnf" x1="2026.92" y1="317.939" x2="2026.92" y2="529.183" gradientUnits="userSpaceOnUse">
      <stop stop-color="#fff" stop-opacity="0"/>
      <stop offset="1" stop-color="#fff"/>
    </linearGradient>
    <linearGradient id="s3fLchI6Cng" x1="2022.08" y1="285.658" x2="2022.08" y2="496.797" gradientUnits="userSpaceOnUse">
      <stop stop-color="#fff" stop-opacity="0"/>
      <stop offset="1" stop-color="#fff"/>
    </linearGradient>
    <linearGradient id="s3fLchI6Cnh" x1="2021.04" y1="261.998" x2="2021.04" y2="463.459" gradientUnits="userSpaceOnUse">
      <stop stop-color="#fff" stop-opacity="0"/>
      <stop offset="1" stop-color="#fff"/>
    </linearGradient>
    <linearGradient id="s3fLchI6Cni" x1="2023.19" y1="244.777" x2="2023.19" y2="431.371" gradientUnits="userSpaceOnUse">
      <stop stop-color="#fff" stop-opacity="0"/>
      <stop offset="1" stop-color="#fff"/>
    </linearGradient>
    <linearGradient id="s3fLchI6Cnj" x1="2026.72" y1="229.109" x2="2026.72" y2="407.308" gradientUnits="userSpaceOnUse">
      <stop stop-color="#fff" stop-opacity="0"/>
      <stop offset="1" stop-color="#fff"/>
    </linearGradient>
    <linearGradient id="s3fLchI6Cnk" x1="2029.14" y1="212.15" x2="2029.14" y2="407.307" gradientUnits="userSpaceOnUse">
      <stop stop-color="#fff" stop-opacity="0"/>
      <stop offset="1" stop-color="#fff"/>
    </linearGradient>
    <linearGradient id="s3fLchI6Cnl" x1="2029.28" y1="179.906" x2="2029.28" y2="398.588" gradientUnits="userSpaceOnUse">
      <stop stop-color="#fff" stop-opacity="0"/>
      <stop offset="1" stop-color="#fff"/>
    </linearGradient>
    <linearGradient id="s3fLchI6Cnm" x1="2025.19" y1="157.346" x2="2025.19" y2="375.336" gradientUnits="userSpaceOnUse">
      <stop stop-color="#fff" stop-opacity="0"/>
      <stop offset="1" stop-color="#fff"/>
    </linearGradient>
    <linearGradient id="s3fLchI6Cnn" x1="2017.93" y1="138.105" x2="2017.93" y2="339.764" gradientUnits="userSpaceOnUse">
      <stop stop-color="#fff" stop-opacity="0"/>
      <stop offset="1" stop-color="#fff"/>
    </linearGradient>
    <linearGradient id="s3fLchI6Cno" x1="2009.21" y1="115.793" x2="2009.21" y2="298.104" gradientUnits="userSpaceOnUse">
      <stop stop-color="#fff" stop-opacity="0"/>
      <stop offset="1" stop-color="#fff"/>
    </linearGradient>
    <linearGradient id="s3fLchI6Cnp" x1="2000.21" y1="82.008" x2="2000.21" y2="255.614" gradientUnits="userSpaceOnUse">
      <stop stop-color="#fff" stop-opacity="0"/>
      <stop offset="1" stop-color="#fff"/>
    </linearGradient>
    <linearGradient id="s3fLchI6Cnq" x1="1992.25" y1="52.154" x2="1992.25" y2="235.251" gradientUnits="userSpaceOnUse">
      <stop stop-color="#fff" stop-opacity="0"/>
      <stop offset="1" stop-color="#fff"/>
    </linearGradient>
    <linearGradient id="s3fLchI6Cnr" x1="1986.72" y1="33.725" x2="1986.72" y2="224.702" gradientUnits="userSpaceOnUse">
      <stop stop-color="#fff" stop-opacity="0"/>
      <stop offset="1" stop-color="#fff"/>
    </linearGradient>
    <linearGradient id="s3fLchI6Cns" x1="1984.64" y1="30.793" x2="1984.64" y2="211.226" gradientUnits="userSpaceOnUse">
      <stop stop-color="#fff" stop-opacity="0"/>
      <stop offset="1" stop-color="#fff"/>
    </linearGradient>
    <linearGradient id="s3fLchI6Cnt" x1="1985.96" y1="33.65" x2="1985.96" y2="200.372" gradientUnits="userSpaceOnUse">
      <stop stop-color="#fff" stop-opacity="0"/>
      <stop offset="1" stop-color="#fff"/>
    </linearGradient>
    <linearGradient id="s3fLchI6Cnu" x1="1989.28" y1="38.338" x2="1989.28" y2="192.864" gradientUnits="userSpaceOnUse">
      <stop stop-color="#fff" stop-opacity="0"/>
      <stop offset="1" stop-color="#fff"/>
    </linearGradient>
    <linearGradient id="s3fLchI6Cnv" x1="1993.01" y1="42.773" x2="1993.01" y2="186.737" gradientUnits="userSpaceOnUse">
      <stop stop-color="#fff" stop-opacity="0"/>
      <stop offset="1" stop-color="#fff"/>
    </linearGradient>
    <linearGradient id="s3fLchI6Cnw" x1="1995.64" y1="22.938" x2="1995.64" y2="179.77" gradientUnits="userSpaceOnUse">
      <stop stop-color="#fff" stop-opacity="0"/>
      <stop offset="1" stop-color="#fff"/>
    </linearGradient>
    <linearGradient id="s3fLchI6Cnx" x1="3467.87" y1="7.174" x2="3467.87" y2="701.974" gradientUnits="userSpaceOnUse">
      <stop stop-color="#fff" stop-opacity="0"/>
      <stop offset="1" stop-color="#fff"/>
    </linearGradient>
    <linearGradient id="s3fLchI6Cny" x1="3396.25" y1="26.967" x2="3396.25" y2="697.684" gradientUnits="userSpaceOnUse">
      <stop stop-color="#fff" stop-opacity="0"/>
      <stop offset="1" stop-color="#fff"/>
    </linearGradient>
    <linearGradient id="s3fLchI6Cnz" x1="3325.45" y1="55.617" x2="3325.45" y2="693.256" gradientUnits="userSpaceOnUse">
      <stop stop-color="#fff" stop-opacity="0"/>
      <stop offset="1" stop-color="#fff"/>
    </linearGradient>
    <linearGradient id="s3fLchI6CnA" x1="3255.14" y1="88.559" x2="3255.14" y2="688.827" gradientUnits="userSpaceOnUse">
      <stop stop-color="#fff" stop-opacity="0"/>
      <stop offset="1" stop-color="#fff"/>
    </linearGradient>
    <linearGradient id="s3fLchI6CnB" x1="3184.21" y1="121.084" x2="3184.21" y2="684.675" gradientUnits="userSpaceOnUse">
      <stop stop-color="#fff" stop-opacity="0"/>
      <stop offset="1" stop-color="#fff"/>
    </linearGradient>
    <linearGradient id="s3fLchI6CnC" x1="3112.38" y1="148.35" x2="3112.38" y2="680.384" gradientUnits="userSpaceOnUse">
      <stop stop-color="#fff" stop-opacity="0"/>
      <stop offset="1" stop-color="#fff"/>
    </linearGradient>
    <linearGradient id="s3fLchI6CnD" x1="3038.81" y1="165.65" x2="3038.81" y2="675.955" gradientUnits="userSpaceOnUse">
      <stop stop-color="#fff" stop-opacity="0"/>
      <stop offset="1" stop-color="#fff"/>
    </linearGradient>
    <linearGradient id="s3fLchI6CnE" x1="2962.97" y1="168.279" x2="2962.97" y2="671.525" gradientUnits="userSpaceOnUse">
      <stop stop-color="#fff" stop-opacity="0"/>
      <stop offset="1" stop-color="#fff"/>
    </linearGradient>
    <linearGradient id="s3fLchI6CnF" x1="2885.81" y1="156.791" x2="2885.81" y2="671.525" gradientUnits="userSpaceOnUse">
      <stop stop-color="#fff" stop-opacity="0"/>
      <stop offset="1" stop-color="#fff"/>
    </linearGradient>
    <linearGradient id="s3fLchI6CnG" x1="2808.37" y1="135.617" x2="2808.37" y2="675.956" gradientUnits="userSpaceOnUse">
      <stop stop-color="#fff" stop-opacity="0"/>
      <stop offset="1" stop-color="#fff"/>
    </linearGradient>
    <linearGradient id="s3fLchI6CnH" x1="2730.31" y1="108.49" x2="2730.31" y2="683.154" gradientUnits="userSpaceOnUse">
      <stop stop-color="#fff" stop-opacity="0"/>
      <stop offset="1" stop-color="#fff"/>
    </linearGradient>
    <linearGradient id="s3fLchI6CnI" x1="2651.97" y1="78.732" x2="2651.97" y2="691.458" gradientUnits="userSpaceOnUse">
      <stop stop-color="#fff" stop-opacity="0"/>
      <stop offset="1" stop-color="#fff"/>
    </linearGradient>
    <linearGradient id="s3fLchI6CnJ" x1="2573.77" y1="50.08" x2="2573.77" y2="699.345" gradientUnits="userSpaceOnUse">
      <stop stop-color="#fff" stop-opacity="0"/>
      <stop offset="1" stop-color="#fff"/>
    </linearGradient>
    <linearGradient id="s3fLchI6CnK" x1="2495.29" y1="26.275" x2="2495.29" y2="705.159" gradientUnits="userSpaceOnUse">
      <stop stop-color="#fff" stop-opacity="0"/>
      <stop offset="1" stop-color="#fff"/>
    </linearGradient>
    <linearGradient id="s3fLchI6CnL" x1="2416.75" y1="10.496" x2="2416.75" y2="706.68" gradientUnits="userSpaceOnUse">
      <stop stop-color="#fff" stop-opacity="0"/>
      <stop offset="1" stop-color="#fff"/>
    </linearGradient>
    <linearGradient id="s3fLchI6CnM" x1="2337.72" y1="6.069" x2="2337.72" y2="702.668" gradientUnits="userSpaceOnUse">
      <stop stop-color="#fff" stop-opacity="0"/>
      <stop offset="1" stop-color="#fff"/>
    </linearGradient>
    <linearGradient id="s3fLchI6CnN" x1="2252.6" y1="7.59" x2="2252.6" y2="688.411" gradientUnits="userSpaceOnUse">
      <stop stop-color="#fff" stop-opacity="0"/>
      <stop offset="1" stop-color="#fff"/>
    </linearGradient>
    <linearGradient id="s3fLchI6CnO" x1="2161.94" y1="12.018" x2="2161.94" y2="665.85" gradientUnits="userSpaceOnUse">
      <stop stop-color="#fff" stop-opacity="0"/>
      <stop offset="1" stop-color="#fff"/>
    </linearGradient>
    <linearGradient id="s3fLchI6CnP" x1="2075.11" y1="18.385" x2="2075.11" y2="638.722" gradientUnits="userSpaceOnUse">
      <stop stop-color="#fff" stop-opacity="0"/>
      <stop offset="1" stop-color="#fff"/>
    </linearGradient>
    <linearGradient id="s3fLchI6CnQ" x1="1992.15" y1="25.305" x2="1992.15" y2="610.072" gradientUnits="userSpaceOnUse">
      <stop stop-color="#fff" stop-opacity="0"/>
      <stop offset="1" stop-color="#fff"/>
    </linearGradient>
    <linearGradient id="s3fLchI6CnR" x1="1907.28" y1="31.533" x2="1907.28" y2="582.529" gradientUnits="userSpaceOnUse">
      <stop stop-color="#fff" stop-opacity="0"/>
      <stop offset="1" stop-color="#fff"/>
    </linearGradient>
    <linearGradient id="s3fLchI6CnS" x1="1796.69" y1="35.963" x2="1796.69" y2="560.246" gradientUnits="userSpaceOnUse">
      <stop stop-color="#fff" stop-opacity="0"/>
      <stop offset="1" stop-color="#fff"/>
    </linearGradient>
    <linearGradient id="s3fLchI6CnT" x1="1700.98" y1="33.787" x2="1700.98" y2="545.713" gradientUnits="userSpaceOnUse">
      <stop stop-color="#fff" stop-opacity="0"/>
      <stop offset="1" stop-color="#fff"/>
    </linearGradient>
    <linearGradient id="s3fLchI6CnU" x1="1621.88" y1="30.732" x2="1621.88" y2="541.145" gradientUnits="userSpaceOnUse">
      <stop stop-color="#fff" stop-opacity="0"/>
      <stop offset="1" stop-color="#fff"/>
    </linearGradient>
    <linearGradient id="s3fLchI6CnV" x1="1547" y1="38.355" x2="1547" y2="542.114" gradientUnits="userSpaceOnUse">
      <stop stop-color="#fff" stop-opacity="0"/>
      <stop offset="1" stop-color="#fff"/>
    </linearGradient>
    <linearGradient id="s3fLchI6CnW" x1="1474.82" y1="52.787" x2="1474.82" y2="546.407" gradientUnits="userSpaceOnUse">
      <stop stop-color="#fff" stop-opacity="0"/>
      <stop offset="1" stop-color="#fff"/>
    </linearGradient>
    <linearGradient id="s3fLchI6CnX" x1="1404.1" y1="70.465" x2="1404.1" y2="552.773" gradientUnits="userSpaceOnUse">
      <stop stop-color="#fff" stop-opacity="0"/>
      <stop offset="1" stop-color="#fff"/>
    </linearGradient>
    <linearGradient id="s3fLchI6CnY" x1="1333.72" y1="87.588" x2="1333.72" y2="559.415" gradientUnits="userSpaceOnUse">
      <stop stop-color="#fff" stop-opacity="0"/>
      <stop offset="1" stop-color="#fff"/>
    </linearGradient>
    <linearGradient id="s3fLchI6CnZ" x1="1261.81" y1="102.262" x2="1261.81" y2="565.093" gradientUnits="userSpaceOnUse">
      <stop stop-color="#fff" stop-opacity="0"/>
      <stop offset="1" stop-color="#fff"/>
    </linearGradient>
    <linearGradient id="s3fLchI6Cnaa" x1="1187.14" y1="112.641" x2="1187.14" y2="568.275" gradientUnits="userSpaceOnUse">
      <stop stop-color="#fff" stop-opacity="0"/>
      <stop offset="1" stop-color="#fff"/>
    </linearGradient>
    <linearGradient id="s3fLchI6Cnab" x1="1108.81" y1="116.102" x2="1108.81" y2="567.168" gradientUnits="userSpaceOnUse">
      <stop stop-color="#fff" stop-opacity="0"/>
      <stop offset="1" stop-color="#fff"/>
    </linearGradient>
    <linearGradient id="s3fLchI6Cnac" x1="1029.08" y1="111.809" x2="1029.08" y2="562.598" gradientUnits="userSpaceOnUse">
      <stop stop-color="#fff" stop-opacity="0"/>
      <stop offset="1" stop-color="#fff"/>
    </linearGradient>
    <linearGradient id="s3fLchI6Cnad" x1="954.62" y1="102.398" x2="954.62" y2="557.756" gradientUnits="userSpaceOnUse">
      <stop stop-color="#fff" stop-opacity="0"/>
      <stop offset="1" stop-color="#fff"/>
    </linearGradient>
    <linearGradient id="s3fLchI6Cnae" x1="883.895" y1="89.664" x2="883.895" y2="553.187" gradientUnits="userSpaceOnUse">
      <stop stop-color="#fff" stop-opacity="0"/>
      <stop offset="1" stop-color="#fff"/>
    </linearGradient>
    <linearGradient id="s3fLchI6Cnaf" x1="814.968" y1="75.131" x2="814.968" y2="548.342" gradientUnits="userSpaceOnUse">
      <stop stop-color="#fff" stop-opacity="0"/>
      <stop offset="1" stop-color="#fff"/>
    </linearGradient>
    <linearGradient id="s3fLchI6Cnag" x1="746.18" y1="60.461" x2="746.18" y2="543.638" gradientUnits="userSpaceOnUse">
      <stop stop-color="#fff" stop-opacity="0"/>
      <stop offset="1" stop-color="#fff"/>
    </linearGradient>
    <linearGradient id="s3fLchI6Cnah" x1="675.247" y1="47.313" x2="675.247" y2="538.932" gradientUnits="userSpaceOnUse">
      <stop stop-color="#fff" stop-opacity="0"/>
      <stop offset="1" stop-color="#fff"/>
    </linearGradient>
    <linearGradient id="s3fLchI6Cnai" x1="600.922" y1="37.07" x2="600.922" y2="534.088" gradientUnits="userSpaceOnUse">
      <stop stop-color="#fff" stop-opacity="0"/>
      <stop offset="1" stop-color="#fff"/>
    </linearGradient>
  </defs>
</svg>
