<svg xmlns="http://www.w3.org/2000/svg" fill="none" viewBox="0 0 37 37">
  <path fill-rule="evenodd" clip-rule="evenodd" d="M16.958 1.542h.004a3.857 3.857 0 013.857 3.857v4.849c5.299.804 8.232 1.256 8.754 1.35.667.12 1.551.476 2.285 1.228.77.788 1.288 1.925 1.288 3.414v17.677c0 .851-.69 1.541-1.542 1.541H14.646c-.852 0-1.542-.69-1.542-1.541V29.89c-4.764-5.208-7.539-8.27-8.283-9.147-.75-.883-1.364-2.325-.533-3.688.762-1.249 2.309-1.642 3.847-1.642 2.115 0 3.644 1.534 4.579 2.473l.017.017a190.214 190.214 0 01.383.386v-1.166c0-2.604-.002-6.512-.007-11.723a3.855 3.855 0 013.85-3.86zm-.77 29.291v1.542h13.875v-1.542H16.188zm13.875-3.083V16.24c0-.723-.23-1.075-.412-1.26a1.252 1.252 0 00-.622-.347m1.034 13.117H15.325c-4.753-5.195-7.458-8.183-8.154-9.002a1.542 1.542 0 01-.094-.121c.202-.066.54-.13 1.058-.13.655 0 1.316.484 2.412 1.584l.192.194c.427.431.929.939 1.441 1.336.597.463 1.43.96 2.466.96.514-.092 1.083-.451 1.257-.649.08-.126.18-.334.207-.41.04-.12.055-.218.059-.24v-.003a1.6 1.6 0 00.015-.124l.004-.074.002-.076.002-.197.003-.74c.002-.653.003-1.631.003-2.934 0-2.606-.002-6.515-.008-11.727 0-.426.344-.771.77-.772.428 0 .776.347.776.774v6.174c0 .762.557 1.41 1.31 1.524 6.164.935 9.472 1.444 9.983 1.536" fill="url(#zhPLb-Y-5a)"/>
  <defs>
    <linearGradient id="zhPLb-Y-5a" x1="3.89" y1="35.458" x2="35.34" y2="35.458" gradientUnits="userSpaceOnUse">
      <stop stop-color="#C9FF00"/>
      <stop offset="1" stop-color="#1CD5CF"/>
    </linearGradient>
  </defs>
</svg>
