<svg xmlns="http://www.w3.org/2000/svg" fill="none" viewBox="0 0 32 32">
  <path fill-rule="evenodd" clip-rule="evenodd" d="M16 4a1.333 1.333 0 100 2.666A1.333 1.333 0 0016 4zm-4 1.333a4 4 0 115.333 3.772v6.125l5.363 3.096a4 4 0 11-1.305 2.326L16 17.539l-5.391 3.113a4 4 0 11-1.305-2.326l5.363-3.096V9.105A4.002 4.002 0 0112 5.333zm-5.333 4a1.333 1.333 0 100 2.667 1.333 1.333 0 000-2.667zm-4 1.333a4 4 0 118 0 4 4 0 01-8 0zm22.666-1.333a1.333 1.333 0 100 2.667 1.333 1.333 0 000-2.667zm-4 1.333a4 4 0 118 0 4 4 0 01-8 0zM6.667 20a1.333 1.333 0 100 2.666 1.333 1.333 0 000-2.666zm18.666 0a1.333 1.333 0 100 2.666 1.333 1.333 0 000-2.666zM16 25.333A1.333 1.333 0 1016 28a1.333 1.333 0 000-2.667zm-4 1.333a4 4 0 118 0 4 4 0 01-8 0z" fill="url(#8DekbX-gKa)"/>
  <defs>
    <linearGradient id="8DekbX-gKa" x1="2.667" y1="30.666" x2="31.333" y2="30.666" gradientUnits="userSpaceOnUse">
      <stop stop-color="#C9FF00"/>
      <stop offset="1" stop-color="#1CD5CF"/>
    </linearGradient>
  </defs>
</svg>
