<svg xmlns="http://www.w3.org/2000/svg" fill="none" viewBox="0 0 37 37">
  <path fill-rule="evenodd" clip-rule="evenodd" d="M18.495 2.313a1.542 1.542 0 011.385.856l4.414 8.894L34.14 13.5a1.541 1.541 0 01.856 2.627l-7.16 7.013 1.7 9.742a1.542 1.542 0 01-2.244 1.625L18.5 29.82l-8.79 4.686a1.542 1.542 0 01-2.244-1.627l1.713-9.74-7.172-7.012a1.542 1.542 0 01.856-2.628l9.898-1.436 4.354-8.887a1.542 1.542 0 011.381-.863zm.013 5.027l-3.337 6.81c-.224.458-.66.775-1.163.848l-7.617 1.104 5.524 5.4c.364.356.529.869.44 1.37l-1.305 7.425 6.724-3.584a1.542 1.542 0 011.45 0l6.73 3.587-1.296-7.43a1.54 1.54 0 01.44-1.367l5.516-5.402-7.564-1.103a1.542 1.542 0 01-1.159-.84L18.509 7.34z" fill="url(#FNry4MP_ea)"/>
  <defs>
    <linearGradient id="FNry4MP_ea" x1="1.542" y1="34.688" x2="38.002" y2="34.688" gradientUnits="userSpaceOnUse">
      <stop stop-color="#C9FF00"/>
      <stop offset="1" stop-color="#1CD5CF"/>
    </linearGradient>
  </defs>
</svg>
