<svg xmlns="http://www.w3.org/2000/svg" fill="none" viewBox="0 0 26 26">
  <path fill-rule="evenodd" clip-rule="evenodd" d="M17.333 3.25a5.417 5.417 0 00-4.79 7.948c.223.42.145.937-.191 1.273l-8.653 8.654L4.875 22.3l8.653-8.653a1.083 1.083 0 011.274-.192 5.417 5.417 0 007.843-5.86l-2.92 2.92a1.083 1.083 0 01-1.533 0l-2.708-2.709a1.083 1.083 0 010-1.532l2.92-2.92a5.448 5.448 0 00-1.07-.105zM9.75 8.666a7.583 7.583 0 0111.13-6.704 1.083 1.083 0 01.258 1.723l-3.356 3.356 1.176 1.177 3.357-3.357a1.083 1.083 0 011.723.26 7.583 7.583 0 01-9.511 10.593L5.64 24.598a1.083 1.083 0 01-1.532 0L1.4 21.89a1.083 1.083 0 010-1.532l8.886-8.886a7.567 7.567 0 01-.537-2.807z" fill="url(#KgQ5R04UUVa)"/>
  <defs>
    <linearGradient id="KgQ5R04UUVa" x1="1.083" y1="24.916" x2="26.704" y2="24.916" gradientUnits="userSpaceOnUse">
      <stop stop-color="#C9FF00"/>
      <stop offset="1" stop-color="#1CD5CF"/>
    </linearGradient>
  </defs>
</svg>
