<svg xmlns="http://www.w3.org/2000/svg" fill="none" viewBox="0 0 32 32">
  <path fill-rule="evenodd" clip-rule="evenodd" d="M21.333 4a6.667 6.667 0 00-5.895 9.782 1.333 1.333 0 01-.236 1.567L4.553 26 6 27.448l10.65-10.65a1.333 1.333 0 011.567-.235A6.667 6.667 0 0027.87 9.35l-3.594 3.594c-.52.52-1.365.52-1.886 0L19.057 9.61a1.333 1.333 0 010-1.885l3.594-3.594A6.706 6.706 0 0021.333 4zM12 10.666a9.333 9.333 0 0113.698-8.251 1.333 1.333 0 01.318 2.12l-4.13 4.131 1.447 1.448 4.131-4.13a1.333 1.333 0 012.121.318A9.333 9.333 0 0117.88 19.339L6.943 30.276c-.52.52-1.365.52-1.886 0l-3.333-3.334a1.333 1.333 0 010-1.885L12.66 14.12a9.31 9.31 0 01-.66-3.454z" fill="url(#fxC35M23Ea)"/>
  <defs>
    <linearGradient id="fxC35M23Ea" x1="1.333" y1="30.666" x2="32.867" y2="30.666" gradientUnits="userSpaceOnUse">
      <stop stop-color="#C9FF00"/>
      <stop offset="1" stop-color="#1CD5CF"/>
    </linearGradient>
  </defs>
</svg>
