<svg xmlns="http://www.w3.org/2000/svg" fill="none" viewBox="0 0 32 32">
  <path fill-rule="evenodd" clip-rule="evenodd" d="M6 5.334A.667.667 0 005.333 6v20c0 .369.299.667.667.667h20a.667.667 0 00.667-.667V6A.667.667 0 0026 5.334H6zM2.667 6A3.333 3.333 0 016 2.667h20A3.333 3.333 0 0129.333 6v20A3.333 3.333 0 0126 29.334H6A3.333 3.333 0 012.667 26V6zm16.79 7.334h-2.124a1.333 1.333 0 010-2.667h5.334A1.334 1.334 0 0124 12v5.334a1.333 1.333 0 01-2.667 0v-2.106l-4.732 4.75a1.333 1.333 0 01-1.886.003l-1.983-1.978-2.83 2.83a1.333 1.333 0 01-1.885-1.886l3.771-3.771c.52-.52 1.364-.52 1.885-.001l1.98 1.976 3.803-3.817z" fill="url(#iQ6WO_z5D9a)"/>
  <defs>
    <linearGradient id="iQ6WO_z5D9a" x1="2.667" y1="29.334" x2="31.333" y2="29.334" gradientUnits="userSpaceOnUse">
      <stop stop-color="#C9FF00"/>
      <stop offset="1" stop-color="#1CD5CF"/>
    </linearGradient>
  </defs>
</svg>
