<svg xmlns="http://www.w3.org/2000/svg" fill="none" viewBox="0 0 37 37">
  <path fill-rule="evenodd" clip-rule="evenodd" d="M18.5 1.542c.546 0 1.052.289 1.329.76l7.708 13.104a1.542 1.542 0 01-1.329 2.323H10.792a1.542 1.542 0 01-1.33-2.323l7.71-13.104a1.54 1.54 0 011.328-.76zm-5.013 13.104h10.026L18.5 6.124l-5.013 8.522zm14.263 8.479a4.625 4.625 0 100 9.25 4.625 4.625 0 000-9.25zm-7.708 4.625a7.708 7.708 0 1115.416 0 7.708 7.708 0 01-15.416 0zM3.083 22.354c0-.851.69-1.541 1.542-1.541h10.792c.851 0 1.541.69 1.541 1.541v10.792c0 .851-.69 1.541-1.541 1.541H4.625c-.851 0-1.542-.69-1.542-1.541V22.354zm3.084 1.542v7.708h7.708v-7.708H6.167z" fill="url(#1dm7w8gZTa)"/>
  <defs>
    <linearGradient id="1dm7w8gZTa" x1="3.083" y1="35.458" x2="37.886" y2="35.458" gradientUnits="userSpaceOnUse">
      <stop stop-color="#C9FF00"/>
      <stop offset="1" stop-color="#1CD5CF"/>
    </linearGradient>
  </defs>
</svg>
