<svg xmlns="http://www.w3.org/2000/svg" fill="none" viewBox="0 0 32 32">
  <path fill-rule="evenodd" clip-rule="evenodd" d="M16 4C9.373 4 4 9.372 4 16c0 6.627 5.373 12 12 12s12-5.373 12-12c0-6.628-5.373-12-12-12zM1.333 16C1.333 7.9 7.9 1.333 16 1.333S30.667 7.899 30.667 16c0 8.1-6.567 14.666-14.667 14.666S1.333 24.1 1.333 16zm7.034-2.4a8.003 8.003 0 0112.678-3.81 1.334 1.334 0 012.65.21v4a1.333 1.333 0 01-2.605.4 5.336 5.336 0 00-10.18 0 1.333 1.333 0 11-2.543-.8zm14.394 3.128c.703.22 1.093.969.873 1.671a8.003 8.003 0 01-12.678 3.81 1.334 1.334 0 01-2.65-.21v-4a1.333 1.333 0 012.605-.399 5.336 5.336 0 0010.179 0 1.333 1.333 0 011.671-.872z" fill="url(#NrGOvvXG10a)"/>
  <defs>
    <linearGradient id="NrGOvvXG10a" x1="1.333" y1="30.666" x2="32.867" y2="30.666" gradientUnits="userSpaceOnUse">
      <stop stop-color="#C9FF00"/>
      <stop offset="1" stop-color="#1CD5CF"/>
    </linearGradient>
  </defs>
</svg>
