<svg xmlns="http://www.w3.org/2000/svg" fill="none" viewBox="0 0 29 29">
  <path fill-rule="evenodd" clip-rule="evenodd" d="M6.08 11.274a8.46 8.46 0 0116.846.06A7.252 7.252 0 0118.4 25.102a1.208 1.208 0 11.659-2.325 4.833 4.833 0 102.445-9.353 1.209 1.209 0 01-.92-1.02 1.208 1.208 0 01-.042-.32 6.042 6.042 0 00-12.084 0c0 .417-.21.785-.532 1.002a1.203 1.203 0 01-.591.338 4.833 4.833 0 102.445 9.353 1.208 1.208 0 01.659 2.325A7.25 7.25 0 016.08 11.275zM13 11.23a1.208 1.208 0 011.707-.004l4.31 4.275a1.208 1.208 0 01-1.703 1.715l-1.606-1.593v7.335a1.208 1.208 0 11-2.416 0V14.78c0-.198.047-.385.132-.55l-2.901 2.91a1.208 1.208 0 01-1.712-1.705L13 11.23z" fill="url(#cSIbzGlLMa)"/>
  <defs>
    <linearGradient id="cSIbzGlLMa" x1="1.208" y1="25.375" x2="29.612" y2="25.375" gradientUnits="userSpaceOnUse">
      <stop stop-color="#C9FF00"/>
      <stop offset="1" stop-color="#1CD5CF"/>
    </linearGradient>
  </defs>
</svg>
