<svg xmlns="http://www.w3.org/2000/svg" fill="none" viewBox="0 0 32 32">
  <path fill-rule="evenodd" clip-rule="evenodd" d="M6.709 12.44a9.334 9.334 0 0118.588.068 8.002 8.002 0 01-4.994 15.19 1.333 1.333 0 11.727-2.566 5.333 5.333 0 102.698-10.32 1.334 1.334 0 01-1.014-1.125 1.333 1.333 0 01-.047-.354 6.667 6.667 0 00-13.334 0c0 .46-.233.866-.587 1.105a1.327 1.327 0 01-.652.373 5.333 5.333 0 102.698 10.32 1.333 1.333 0 01.727 2.567 8 8 0 01-4.81-15.257zm7.636-.048a1.333 1.333 0 011.884-.005l4.754 4.717a1.334 1.334 0 01-1.878 1.893l-1.772-1.758v8.094a1.333 1.333 0 11-2.666 0v-9.025c0-.219.052-.425.146-.607l-3.202 3.212a1.333 1.333 0 01-1.889-1.883l4.623-4.638z" fill="url(#QXUY3VecTfa)"/>
  <defs>
    <linearGradient id="QXUY3VecTfa" x1="1.333" y1="28" x2="32.675" y2="28" gradientUnits="userSpaceOnUse">
      <stop stop-color="#C9FF00"/>
      <stop offset="1" stop-color="#1CD5CF"/>
    </linearGradient>
  </defs>
</svg>
