<svg xmlns="http://www.w3.org/2000/svg" fill="none" viewBox="0 0 27 26">
  <mask id="GOq-35jXab" maskUnits="userSpaceOnUse" x="0" y="0" width="27" height="26" fill="#000">
    <path fill="#fff" d="M0 0h27v26H0z"/>
    <path fill-rule="evenodd" clip-rule="evenodd" d="M13.5 2.09c-6.307 0-11.414 5.09-11.414 11.356 0 4.602 2.754 8.562 6.716 10.343.415.187.82.113 1.137-.125a1.44 1.44 0 00.554-1.155v-.595l-1.414-.192a.549.549 0 01-.031-.005c-.78-.152-1.305-.427-1.69-.822-.325-.333-.523-.732-.69-1.07l-.059-.118c-.155-.324-.324-.64-.507-.95-.14-.223-.25-.338-.358-.41-.275-.182-.54-.492-.54-.88a.752.752 0 01.271-.583.878.878 0 01.569-.19c.231 0 .449.07.63.152.185.084.37.194.542.309.418.28.83.61 1.18 1.018.363.424.62.693 1.008.748.319.046.644.047.897.036.035-.2.093-.397.173-.584a8.707 8.707 0 01-.914-.268c-.68-.242-1.44-.618-1.95-1.19-.561-.627-.908-1.188-1.102-1.843-.188-.638-.22-1.33-.22-2.182 0-1.304.564-2.403.987-2.986a9.044 9.044 0 01-.349-1.566 3.674 3.674 0 01.001-1.01c.052-.306.182-.682.525-.908.33-.22.718-.211 1.02-.155.313.06.64.19.94.34.488.242.973.565 1.337.84.627-.185 1.736-.423 2.74-.445h.022c1.005.022 2.064.26 2.675.443a8.946 8.946 0 011.337-.839c.3-.149.625-.28.94-.339.302-.056.69-.065 1.02.154.342.227.473.603.524.909.053.318.04.674 0 1.01a9.052 9.052 0 01-.348 1.566c.423.584.987 1.683.987 2.986 0 .852-.031 1.543-.219 2.181-.195.658-.542 1.217-1.102 1.845-.51.57-1.27.947-1.951 1.19-.362.127-.731.23-1.106.31.128.387.174.702.174.882v3.224c0 .49.228.91.552 1.154a1.09 1.09 0 001.133.13c4-1.765 6.786-5.735 6.786-10.36 0-6.267-5.105-11.356-11.413-11.356zm-2.63 17.911c-.27.039 0 0 0 0h-.003l-.009.002-.03.005c-.155.018-.31.03-.465.038-.371.02-.743.005-1.11-.045-.825-.116-1.326-.7-1.65-1.08l-.031-.036a3.76 3.76 0 00-.34-.348c.107.199.218.42.338.658l.01.02.053.11c.183.362.302.604.501.807.194.198.496.39 1.107.511l1.868.254a.544.544 0 01.471.54v1.072c0 .835-.39 1.579-.99 2.03a2.172 2.172 0 01-2.232.246C4.023 22.837 1 18.499 1 13.446 1 6.568 6.601 1 13.5 1S26 6.568 26 13.446c0 5.079-3.061 9.428-7.434 11.36a2.174 2.174 0 01-2.226-.258 2.53 2.53 0 01-.986-2.027v-3.224c0-.073-.05-.495-.335-1.061a.548.548 0 01.425-.788 7.477 7.477 0 001.566-.371c.62-.22 1.174-.52 1.505-.89.49-.548.735-.97.87-1.426.139-.472.174-1.022.174-1.87 0-1.191-.625-2.192-.912-2.514a.544.544 0 01-.108-.546c.185-.526.316-1.07.39-1.622a2.63 2.63 0 00.006-.7.477.477 0 00-.056-.18.506.506 0 00-.216.009 2.697 2.697 0 00-.659.244 8.01 8.01 0 00-1.37.893.541.541 0 01-.527.09A9.68 9.68 0 0013.5 8.09c-1.049.025-2.26.324-2.673.473a.54.54 0 01-.526-.089 8.095 8.095 0 00-1.37-.893 2.713 2.713 0 00-.661-.244.505.505 0 00-.215-.01A.476.476 0 008 7.51a2.63 2.63 0 00.006.7c.075.553.206 1.096.39 1.622a.547.547 0 01-.107.546c-.288.322-.913 1.323-.913 2.513 0 .848.035 1.399.175 1.871.135.456.38.877.869 1.427.331.369.885.67 1.505.889a7.48 7.48 0 001.566.371.543.543 0 01.256.986c-.172.123-.286.345-.35.6a2.034 2.034 0 00-.058.402v.02a.546.546 0 01-.467.545z"/>
  </mask>
  <path fill-rule="evenodd" clip-rule="evenodd" d="M13.5 2.09c-6.307 0-11.414 5.09-11.414 11.356 0 4.602 2.754 8.562 6.716 10.343.415.187.82.113 1.137-.125a1.44 1.44 0 00.554-1.155v-.595l-1.414-.192a.549.549 0 01-.031-.005c-.78-.152-1.305-.427-1.69-.822-.325-.333-.523-.732-.69-1.07l-.059-.118c-.155-.324-.324-.64-.507-.95-.14-.223-.25-.338-.358-.41-.275-.182-.54-.492-.54-.88a.752.752 0 01.271-.583.878.878 0 01.569-.19c.231 0 .449.07.63.152.185.084.37.194.542.309.418.28.83.61 1.18 1.018.363.424.62.693 1.008.748.319.046.644.047.897.036.035-.2.093-.397.173-.584a8.707 8.707 0 01-.914-.268c-.68-.242-1.44-.618-1.95-1.19-.561-.627-.908-1.188-1.102-1.843-.188-.638-.22-1.33-.22-2.182 0-1.304.564-2.403.987-2.986a9.044 9.044 0 01-.349-1.566 3.674 3.674 0 01.001-1.01c.052-.306.182-.682.525-.908.33-.22.718-.211 1.02-.155.313.06.64.19.94.34.488.242.973.565 1.337.84.627-.185 1.736-.423 2.74-.445h.022c1.005.022 2.064.26 2.675.443a8.946 8.946 0 011.337-.839c.3-.149.625-.28.94-.339.302-.056.69-.065 1.02.154.342.227.473.603.524.909.053.318.04.674 0 1.01a9.052 9.052 0 01-.348 1.566c.423.584.987 1.683.987 2.986 0 .852-.031 1.543-.219 2.181-.195.658-.542 1.217-1.102 1.845-.51.57-1.27.947-1.951 1.19-.362.127-.731.23-1.106.31.128.387.174.702.174.882v3.224c0 .49.228.91.552 1.154a1.09 1.09 0 001.133.13c4-1.765 6.786-5.735 6.786-10.36 0-6.267-5.105-11.356-11.413-11.356zm-2.63 17.911c-.27.039 0 0 0 0h-.003l-.009.002-.03.005c-.155.018-.31.03-.465.038-.371.02-.743.005-1.11-.045-.825-.116-1.326-.7-1.65-1.08l-.031-.036a3.76 3.76 0 00-.34-.348c.107.199.218.42.338.658l.01.02.053.11c.183.362.302.604.501.807.194.198.496.39 1.107.511l1.868.254a.544.544 0 01.471.54v1.072c0 .835-.39 1.579-.99 2.03a2.172 2.172 0 01-2.232.246C4.023 22.837 1 18.499 1 13.446 1 6.568 6.601 1 13.5 1S26 6.568 26 13.446c0 5.079-3.061 9.428-7.434 11.36a2.174 2.174 0 01-2.226-.258 2.53 2.53 0 01-.986-2.027v-3.224c0-.073-.05-.495-.335-1.061a.548.548 0 01.425-.788 7.477 7.477 0 001.566-.371c.62-.22 1.174-.52 1.505-.89.49-.548.735-.97.87-1.426.139-.472.174-1.022.174-1.87 0-1.191-.625-2.192-.912-2.514a.544.544 0 01-.108-.546c.185-.526.316-1.07.39-1.622a2.63 2.63 0 00.006-.7.477.477 0 00-.056-.18.506.506 0 00-.216.009 2.697 2.697 0 00-.659.244 8.01 8.01 0 00-1.37.893.541.541 0 01-.527.09A9.68 9.68 0 0013.5 8.09c-1.049.025-2.26.324-2.673.473a.54.54 0 01-.526-.089 8.095 8.095 0 00-1.37-.893 2.713 2.713 0 00-.661-.244.505.505 0 00-.215-.01A.476.476 0 008 7.51a2.63 2.63 0 00.006.7c.075.553.206 1.096.39 1.622a.547.547 0 01-.107.546c-.288.322-.913 1.323-.913 2.513 0 .848.035 1.399.175 1.871.135.456.38.877.869 1.427.331.369.885.67 1.505.889a7.48 7.48 0 001.566.371.543.543 0 01.256.986c-.172.123-.286.345-.35.6a2.034 2.034 0 00-.058.402v.02a.546.546 0 01-.467.545z" fill="#fff"/>
  <path fill-rule="evenodd" clip-rule="evenodd" d="M13.5 2.09c-6.307 0-11.414 5.09-11.414 11.356 0 4.602 2.754 8.562 6.716 10.343.415.187.82.113 1.137-.125a1.44 1.44 0 00.554-1.155v-.595l-1.414-.192a.549.549 0 01-.031-.005c-.78-.152-1.305-.427-1.69-.822-.325-.333-.523-.732-.69-1.07l-.059-.118c-.155-.324-.324-.64-.507-.95-.14-.223-.25-.338-.358-.41-.275-.182-.54-.492-.54-.88a.752.752 0 01.271-.583.878.878 0 01.569-.19c.231 0 .449.07.63.152.185.084.37.194.542.309.418.28.83.61 1.18 1.018.363.424.62.693 1.008.748.319.046.644.047.897.036.035-.2.093-.397.173-.584a8.707 8.707 0 01-.914-.268c-.68-.242-1.44-.618-1.95-1.19-.561-.627-.908-1.188-1.102-1.843-.188-.638-.22-1.33-.22-2.182 0-1.304.564-2.403.987-2.986a9.044 9.044 0 01-.349-1.566 3.674 3.674 0 01.001-1.01c.052-.306.182-.682.525-.908.33-.22.718-.211 1.02-.155.313.06.64.19.94.34.488.242.973.565 1.337.84.627-.185 1.736-.423 2.74-.445h.022c1.005.022 2.064.26 2.675.443a8.946 8.946 0 011.337-.839c.3-.149.625-.28.94-.339.302-.056.69-.065 1.02.154.342.227.473.603.524.909.053.318.04.674 0 1.01a9.052 9.052 0 01-.348 1.566c.423.584.987 1.683.987 2.986 0 .852-.031 1.543-.219 2.181-.195.658-.542 1.217-1.102 1.845-.51.57-1.27.947-1.951 1.19-.362.127-.731.23-1.106.31.128.387.174.702.174.882v3.224c0 .49.228.91.552 1.154a1.09 1.09 0 001.133.13c4-1.765 6.786-5.735 6.786-10.36 0-6.267-5.105-11.356-11.413-11.356zm-2.63 17.911c-.27.039 0 0 0 0h-.003l-.009.002-.03.005c-.155.018-.31.03-.465.038-.371.02-.743.005-1.11-.045-.825-.116-1.326-.7-1.65-1.08l-.031-.036a3.76 3.76 0 00-.34-.348c.107.199.218.42.338.658l.01.02.053.11c.183.362.302.604.501.807.194.198.496.39 1.107.511l1.868.254a.544.544 0 01.471.54v1.072c0 .835-.39 1.579-.99 2.03a2.172 2.172 0 01-2.232.246C4.023 22.837 1 18.499 1 13.446 1 6.568 6.601 1 13.5 1S26 6.568 26 13.446c0 5.079-3.061 9.428-7.434 11.36a2.174 2.174 0 01-2.226-.258 2.53 2.53 0 01-.986-2.027v-3.224c0-.073-.05-.495-.335-1.061a.548.548 0 01.425-.788 7.477 7.477 0 001.566-.371c.62-.22 1.174-.52 1.505-.89.49-.548.735-.97.87-1.426.139-.472.174-1.022.174-1.87 0-1.191-.625-2.192-.912-2.514a.544.544 0 01-.108-.546c.185-.526.316-1.07.39-1.622a2.63 2.63 0 00.006-.7.477.477 0 00-.056-.18.506.506 0 00-.216.009 2.697 2.697 0 00-.659.244 8.01 8.01 0 00-1.37.893.541.541 0 01-.527.09A9.68 9.68 0 0013.5 8.09c-1.049.025-2.26.324-2.673.473a.54.54 0 01-.526-.089 8.095 8.095 0 00-1.37-.893 2.713 2.713 0 00-.661-.244.505.505 0 00-.215-.01A.476.476 0 008 7.51a2.63 2.63 0 00.006.7c.075.553.206 1.096.39 1.622a.547.547 0 01-.107.546c-.288.322-.913 1.323-.913 2.513 0 .848.035 1.399.175 1.871.135.456.38.877.869 1.427.331.369.885.67 1.505.889a7.48 7.48 0 001.566.371.543.543 0 01.256.986c-.172.123-.286.345-.35.6a2.034 2.034 0 00-.058.402v.02a.546.546 0 01-.467.545z" fill="url(#GOq-35jXaa)"/>
  <path clip-rule="evenodd" d="M13.5 2.09c-6.307 0-11.414 5.09-11.414 11.356 0 4.602 2.754 8.562 6.716 10.343.415.187.82.113 1.137-.125a1.44 1.44 0 00.554-1.155v-.595l-1.414-.192a.549.549 0 01-.031-.005c-.78-.152-1.305-.427-1.69-.822-.325-.333-.523-.732-.69-1.07l-.059-.118c-.155-.324-.324-.64-.507-.95-.14-.223-.25-.338-.358-.41-.275-.182-.54-.492-.54-.88a.752.752 0 01.271-.583.878.878 0 01.569-.19c.231 0 .449.07.63.152.185.084.37.194.542.309.418.28.83.61 1.18 1.018.363.424.62.693 1.008.748.319.046.644.047.897.036.035-.2.093-.397.173-.584a8.707 8.707 0 01-.914-.268c-.68-.242-1.44-.618-1.95-1.19-.561-.627-.908-1.188-1.102-1.843-.188-.638-.22-1.33-.22-2.182 0-1.304.564-2.403.987-2.986a9.044 9.044 0 01-.349-1.566 3.674 3.674 0 01.001-1.01c.052-.306.182-.682.525-.908.33-.22.718-.211 1.02-.155.313.06.64.19.94.34.488.242.973.565 1.337.84.627-.185 1.736-.423 2.74-.445h.022c1.005.022 2.064.26 2.675.443a8.946 8.946 0 011.337-.839c.3-.149.625-.28.94-.339.302-.056.69-.065 1.02.154.342.227.473.603.524.909.053.318.04.674 0 1.01a9.052 9.052 0 01-.348 1.566c.423.584.987 1.683.987 2.986 0 .852-.031 1.543-.219 2.181-.195.658-.542 1.217-1.102 1.845-.51.57-1.27.947-1.951 1.19-.362.127-.731.23-1.106.31.128.387.174.702.174.882v3.224c0 .49.228.91.552 1.154a1.09 1.09 0 001.133.13c4-1.765 6.786-5.735 6.786-10.36 0-6.267-5.105-11.356-11.413-11.356zm-2.63 17.911c-.27.039 0 0 0 0h-.003l-.009.002-.03.005c-.155.018-.31.03-.465.038-.371.02-.743.005-1.11-.045-.825-.116-1.326-.7-1.65-1.08l-.031-.036a3.76 3.76 0 00-.34-.348c.107.199.218.42.338.658l.01.02.053.11c.183.362.302.604.501.807.194.198.496.39 1.107.511l1.868.254a.544.544 0 01.471.54v1.072c0 .835-.39 1.579-.99 2.03a2.172 2.172 0 01-2.232.246C4.023 22.837 1 18.499 1 13.446 1 6.568 6.601 1 13.5 1S26 6.568 26 13.446c0 5.079-3.061 9.428-7.434 11.36a2.174 2.174 0 01-2.226-.258 2.53 2.53 0 01-.986-2.027v-3.224c0-.073-.05-.495-.335-1.061a.548.548 0 01.425-.788 7.477 7.477 0 001.566-.371c.62-.22 1.174-.52 1.505-.89.49-.548.735-.97.87-1.426.139-.472.174-1.022.174-1.87 0-1.191-.625-2.192-.912-2.514a.544.544 0 01-.108-.546c.185-.526.316-1.07.39-1.622a2.63 2.63 0 00.006-.7.477.477 0 00-.056-.18.506.506 0 00-.216.009 2.697 2.697 0 00-.659.244 8.01 8.01 0 00-1.37.893.541.541 0 01-.527.09A9.68 9.68 0 0013.5 8.09c-1.049.025-2.26.324-2.673.473a.54.54 0 01-.526-.089 8.095 8.095 0 00-1.37-.893 2.713 2.713 0 00-.661-.244.505.505 0 00-.215-.01A.476.476 0 008 7.51a2.63 2.63 0 00.006.7c.075.553.206 1.096.39 1.622a.547.547 0 01-.107.546c-.288.322-.913 1.323-.913 2.513 0 .848.035 1.399.175 1.871.135.456.38.877.869 1.427.331.369.885.67 1.505.889a7.48 7.48 0 001.566.371.543.543 0 01.256.986c-.172.123-.286.345-.35.6a2.034 2.034 0 00-.058.402v.02a.546.546 0 01-.467.545z" stroke="#000" stroke-width=".5" mask="url(#GOq-35jXab)"/>
  <defs>
    <linearGradient id="GOq-35jXaa" x1="1" y1="25" x2="27.875" y2="25" gradientUnits="userSpaceOnUse">
      <stop stop-color="#C9FF00"/>
      <stop offset="1" stop-color="#1CD5CF"/>
    </linearGradient>
  </defs>
</svg>
