<svg xmlns="http://www.w3.org/2000/svg" fill="none" viewBox="0 0 34 33">
  <path fill-rule="evenodd" clip-rule="evenodd" d="M6.167 1.542C6.167.69 6.857 0 7.708 0h18.5c.852 0 1.542.69 1.542 1.542v3.854h4.625c.851 0 1.542.69 1.542 1.542 0 5.458-3.174 8.8-6.928 9.207-1.399 3.608-4.598 6.301-8.493 6.869.003.037.004.074.004.111v1.542h2.345c.518 0 1.002.26 1.287.692l3.05 4.625a1.542 1.542 0 01-1.286 2.391H10.02a1.542 1.542 0 01-1.313-2.35l2.844-4.624c.28-.456.778-.734 1.313-.734h2.552v-1.542c0-.037.001-.074.004-.111-3.895-.568-7.094-3.26-8.494-6.869C3.174 15.738 0 12.396 0 6.938c0-.852.69-1.542 1.542-1.542h4.625V1.542zm3.083 10.52c0 4.45 3.493 7.98 7.708 7.98 4.216 0 7.709-3.53 7.709-7.98v-8.98H9.25v8.978zM6.167 8.478h-2.97c.373 2.397 1.618 3.75 2.97 4.312V8.479zm7.56 19.271l-.948 1.542h8.253l-1.017-1.542h-6.288zM27.75 12.791c1.351-.563 2.596-1.915 2.97-4.312h-2.97v4.312z" fill="url(#ByjYa72S8ka)"/>
  <defs>
    <linearGradient id="ByjYa72S8ka" x1="0" y1="32.375" x2="36.46" y2="32.375" gradientUnits="userSpaceOnUse">
      <stop stop-color="#C9FF00"/>
      <stop offset="1" stop-color="#1CD5CF"/>
    </linearGradient>
  </defs>
</svg>
